<?xml version="1.0" encoding="utf-8"?>
<svg xmlns="http://www.w3.org/2000/svg" viewBox="0 0 500 500">
  <g transform="matrix(0.018451, -0.000076, 0, -0.018089, -4997.984449, -5243.927813)" fill="#000000" stroke="none" style="transform-origin: 5130.3px 5389.97px;">
    <path d="M4940 6750 c-304 -54 -536 -175 -748 -392 -110 -112 -162 -183 -226 -308 -158 -308 -194 -616 -110 -940 57 -219 168 -424 315 -579 53 -57 60 -68 55 -95 -3 -17 -10 -73 -16 -123 -6 -51 -15 -127 -21 -170 -12 -86 -2 -119 38 -129 33 -9 65 7 179 86 54 38 119 82 143 97 l44 27 96 -33 c191 -66 239 -75 436 -75 183 -1 226 5 380 51 343 101 658 371 812 693 51 106 54 115 88 250 38 149 48 240 42 384 -10 250 -94 509 -225 696 -218 311 -533 506 -913 564 -135 20 -236 19 -369 -4z m726 -541 c8 -13 -90 -148 -374 -512 -20 -26 -37 -53 -37 -59 0 -6 63 -33 139 -59 76 -26 144 -53 150 -59 8 -8 -115 -136 -457 -476 -258 -255 -475 -464 -483 -464 -19 0 -18 19 6 57 21 36 65 115 132 243 100 189 154 289 195 364 24 43 43 80 43 82 0 2 -10 4 -22 4 -55 0 -278 56 -278 71 0 5 86 183 190 395 105 211 190 389 190 394 0 5 6 13 14 17 23 12 584 14 592 2z"/>
  </g>
</svg>