<?xml version="1.0" encoding="utf-8"?>
<svg xmlns="http://www.w3.org/2000/svg" viewBox="0 0 100 100">
  <path d="M50 10 c-15 0-25 5-35 15 c-5 5-8 9-11 15 c-8 15-10 30-5 47 c3 11 8 21 16 29 c3 3 3 3 3 5 c0 1 0 4-1 6 c0 3-1 6-1 8 c-1 4 0 6 2 6 c2 0 3 0 9 4 c3 2 6 4 7 5 l2 1 5-2 c10-3 12-4 22-4 c9 0 11 0 19 3 c17 5 33 18 40 35 c3 5 3 6 4 12 c2 7 2 12 2 19 c0 12-5 25-11 35 c-11 15-26 25-45 28 c-7 1-12 1-18 0 z m36-27 c0-1-4-7-19-26 c-1-1-2-3-2-3 c0 0 3-2 7-3 c4-1 7-3 7-3 c0 0-6-7-23-24 c-13-13-24-23-24-23 c-1 0-1 1 0 3 c1 2 3 6 7 12 c5 9 8 14 10 18 c1 2 2 4 2 4 c0 0-1 0-1 0 c-3 0-14 3-14 4 c0 0 4 9 9 20 c5 10 9 19 9 20 c0 0 0 1 1 1 c1 0 29 0 30 0 z" fill="#000000" stroke="none"/>
</svg>
